<?xml version="1.0" encoding="UTF-8" standalone="no"?>
<!DOCTYPE svg PUBLIC "-//W3C//DTD SVG 1.1//EN" "http://www.w3.org/Graphics/SVG/1.1/DTD/svg11.dtd">
<svg width="100%" height="100%" viewBox="0 0 600 600" version="1.1" xmlns="http://www.w3.org/2000/svg" xmlns:xlink="http://www.w3.org/1999/xlink" xml:space="preserve" xmlns:serif="http://www.serif.com/" style="fill-rule:evenodd;clip-rule:evenodd;stroke-linejoin:round;stroke-miterlimit:2;">
    <g id="layer1">
        <path d="M280.949,172.514L355.429,162.714L282.909,326.374C295.649,325.394 308.142,321.067 320.389,313.394C332.642,305.714 343.916,296.077 354.209,284.484C364.496,272.884 373.396,259.981 380.909,245.774C388.422,231.561 393.812,217.594 397.079,203.874C399.039,195.381 399.939,187.214 399.779,179.374C399.612,171.534 397.569,164.674 393.649,158.794C389.729,152.914 383.766,148.177 375.759,144.584C367.759,140.991 356.899,139.194 343.179,139.194C327.172,139.194 311.409,141.807 295.889,147.034C280.376,152.261 266.002,159.857 252.769,169.824C239.542,179.784 228.029,192.197 218.229,207.064C208.429,221.924 201.406,238.827 197.159,257.774C195.526,263.981 194.546,268.961 194.219,272.714C193.892,276.474 193.812,279.577 193.979,282.024C194.139,284.477 194.462,286.357 194.949,287.664C195.442,288.971 195.852,290.277 196.179,291.584C179.519,291.584 167.349,288.234 159.669,281.534C151.996,274.841 150.119,263.164 154.039,246.504C157.959,229.191 166.862,212.694 180.749,197.014C194.629,181.334 211.122,167.531 230.229,155.604C249.342,143.684 270.249,134.214 292.949,127.194C315.656,120.167 337.789,116.654 359.349,116.654C378.296,116.654 394.219,119.347 407.119,124.734C420.026,130.127 430.072,137.234 437.259,146.054C444.446,154.874 448.936,165.164 450.729,176.924C452.529,188.684 451.959,200.934 449.019,213.674C445.426,229.027 438.646,244.464 428.679,259.984C418.719,275.497 406.226,289.544 391.199,302.124C376.172,314.697 358.939,324.904 339.499,332.744C320.066,340.584 299.406,344.504 277.519,344.504L275.069,344.504L212.839,484.154L142.279,484.154L280.949,172.514Z" style="fill:white;fill-rule:nonzero;"/>
    </g>
</svg>
