<?xml version="1.0" encoding="UTF-8" standalone="no"?>
<!-- Created with Inkscape (http://www.inkscape.org/) -->

<svg
   width="512"
   height="512"
   viewBox="0 0 135.46666 135.46667"
   version="1.1"
   id="svg4102"
   inkscape:version="1.2.1 (9c6d41e410, 2022-07-14)"
   sodipodi:docname="gotify-logo-notification.svg"
   inkscape:export-filename="gotify-logo-notification.png"
   inkscape:export-xdpi="96"
   inkscape:export-ydpi="96"
   xmlns:inkscape="http://www.inkscape.org/namespaces/inkscape"
   xmlns:sodipodi="http://sodipodi.sourceforge.net/DTD/sodipodi-0.dtd"
   xmlns="http://www.w3.org/2000/svg"
   xmlns:svg="http://www.w3.org/2000/svg">
  <sodipodi:namedview
     id="namedview4104"
     pagecolor="#ffffff"
     bordercolor="#666666"
     borderopacity="1.0"
     inkscape:showpageshadow="2"
     inkscape:pageopacity="0.0"
     inkscape:pagecheckerboard="true"
     inkscape:deskcolor="#d1d1d1"
     inkscape:document-units="px"
     showgrid="false"
     showborder="true"
     showguides="true"
     inkscape:zoom="1.6289062"
     inkscape:cx="255.69305"
     inkscape:cy="256"
     inkscape:window-width="1920"
     inkscape:window-height="1011"
     inkscape:window-x="0"
     inkscape:window-y="32"
     inkscape:window-maximized="1"
     inkscape:current-layer="layer1">
    <sodipodi:guide
       position="12.7,135.46666"
       orientation="-1,0"
       id="guide8860"
       inkscape:locked="false"
       inkscape:label=""
       inkscape:color="rgb(0,134,229)" />
    <sodipodi:guide
       position="122.76667,135.46666"
       orientation="-1,0"
       id="guide10314"
       inkscape:locked="false"
       inkscape:label=""
       inkscape:color="rgb(0,134,229)" />
    <sodipodi:guide
       position="0,122.76667"
       orientation="0,1"
       id="guide11042"
       inkscape:locked="false"
       inkscape:label=""
       inkscape:color="rgb(0,134,229)" />
    <sodipodi:guide
       position="0,12.7"
       orientation="0,1"
       id="guide11770"
       inkscape:locked="false"
       inkscape:label=""
       inkscape:color="rgb(0,134,229)" />
  </sodipodi:namedview>
  <defs
     id="defs4099">
    <clipPath
       clipPathUnits="userSpaceOnUse"
       id="clipPath12649">
      <g
         id="g12655">
        <g
           id="g12653">
          <path
             d="M 6.0300318,-4.5807552 H 120.68281 V 110.07202 H 6.0300318 Z"
             id="path12651"
             style="stroke-width:0.352778" />
        </g>
      </g>
    </clipPath>
    <clipPath
       clipPathUnits="userSpaceOnUse"
       id="clipPath12664">
      <g
         id="g12670">
        <g
           id="g12668">
          <path
             d="M 6.0300318,-4.5807552 H 120.68281 V 110.07202 H 6.0300318 Z"
             id="path12666"
             style="stroke-width:0.352778" />
        </g>
      </g>
    </clipPath>
    <clipPath
       clipPathUnits="userSpaceOnUse"
       id="clipPath12679">
      <g
         id="g12685">
        <g
           id="g12683">
          <path
             d="M 6.0300318,-4.5807552 H 120.68281 V 110.07202 H 6.0300318 Z"
             id="path12681"
             style="stroke-width:0.352778" />
        </g>
      </g>
    </clipPath>
    <clipPath
       clipPathUnits="userSpaceOnUse"
       id="clipPath12694">
      <g
         id="g12700">
        <g
           id="g12698">
          <path
             d="M 6.0300318,-4.5807552 H 120.68281 V 110.07202 H 6.0300318 Z"
             id="path12696"
             style="stroke-width:0.352778" />
        </g>
      </g>
    </clipPath>
    <clipPath
       clipPathUnits="userSpaceOnUse"
       id="clipPath12709">
      <g
         id="g12715">
        <g
           id="g12713">
          <path
             d="M 6.0300318,-4.5807552 H 120.68281 V 110.07202 H 6.0300318 Z"
             id="path12711"
             style="stroke-width:0.352778" />
        </g>
      </g>
    </clipPath>
    <clipPath
       clipPathUnits="userSpaceOnUse"
       id="clipPath12724">
      <g
         id="g12730">
        <g
           id="g12728">
          <path
             d="M 6.0300318,-4.5807552 H 120.68281 V 110.07202 H 6.0300318 Z"
             id="path12726"
             style="stroke-width:0.352778" />
        </g>
      </g>
    </clipPath>
    <clipPath
       clipPathUnits="userSpaceOnUse"
       id="clipPath12739">
      <g
         id="g12745">
        <g
           id="g12743">
          <path
             d="M 6.0300318,-4.5807552 H 120.68281 V 110.07202 H 6.0300318 Z"
             id="path12741"
             style="stroke-width:0.352778" />
        </g>
      </g>
    </clipPath>
    <clipPath
       clipPathUnits="userSpaceOnUse"
       id="clipPath12754">
      <g
         id="g12760">
        <g
           id="g12758">
          <path
             d="M 6.0300318,-4.5807552 H 120.68281 V 110.07202 H 6.0300318 Z"
             id="path12756"
             style="stroke-width:0.352778" />
        </g>
      </g>
    </clipPath>
    <clipPath
       clipPathUnits="userSpaceOnUse"
       id="clipPath12769">
      <g
         id="g12775">
        <g
           id="g12773">
          <path
             d="M 6.0300318,-4.5807552 H 120.68281 V 110.07202 H 6.0300318 Z"
             id="path12771"
             style="stroke-width:0.352778" />
        </g>
      </g>
    </clipPath>
  </defs>
  <g
     inkscape:label="Layer 1"
     inkscape:groupmode="layer"
     id="layer1">
    <g
       id="g43275"
       transform="matrix(2.0144075,0,0,2.0144075,-100.67053,-76.221404)">
      <path
         id="path80"
         clip-path="url(#clipPath12679)"
         style="display:inline;fill:#ffffff;fill-opacity:1;fill-rule:nonzero;stroke:none;stroke-width:0.352778"
         d="m 104.58121,49.511189 c -5.35622,0 -21.665953,2.717293 -24.881166,3.262333 -21.657359,3.668181 -22.167947,4.543016 -22.941235,5.867342 -0.555977,0.952146 -1.081142,1.852174 1.207678,13.468429 1.037871,5.265908 2.643959,12.343425 4.039547,16.415535 0.845255,2.466267 1.630882,4.0134 3.146061,4.62194 0.373238,0.149931 0.780933,0.235373 1.246952,0.261483 0.06985,0.0038 0.14621,0.0057 0.22841,0.0057 5.848344,0 40.834523,-8.916042 41.180953,-9.005652 0.64204,-0.168979 1.81196,-0.697909 2.43602,-2.347143 0.80962,-2.141712 0.89145,-7.642022 0.2434,-16.346806 -0.95321,-12.8097 -1.88756,-14.200582 -2.19625,-14.660603 -0.92251,-1.405466 -2.55455,-1.497049 -3.09077,-1.527039 -0.18557,-0.01062 -0.39241,-0.0155 -0.6196,-0.0155 z m -0.13849,2.975012 c 0.78897,-0.005 1.26666,0.05751 1.36012,0.199988 0.99871,1.488369 3.44629,28.265187 1.24954,28.842684 -2.19851,0.608894 -38.674127,9.706337 -40.790792,8.85579 -2.116664,-0.850899 -7.741501,-28.855994 -6.931877,-30.243115 0.733722,-1.257078 37.486311,-7.606977 45.113009,-7.655347 z" />
      <path
         d="M 66.163155,92.11034 C 65.796619,92.089526 65.452661,91.956176 65.168322,91.72299 64.430311,91.11974 64.320244,90.028951 64.923141,89.291293 70.494913,82.47351 75.054566,77.026621 78.475805,73.101968 l 0.307269,-0.352425 -0.423333,-0.198614 c -1.80587,-0.847372 -3.942997,-1.878541 -6.352822,-3.06458 -6.789208,-3.341864 -13.494103,-6.827308 -13.560072,-6.861528 -0.845256,-0.439914 -1.17475,-1.4859 -0.735189,-2.330803 0.299156,-0.573969 0.886883,-0.93098 1.534583,-0.93098 0.278695,0 0.546806,0.06562 0.796572,0.195792 7.617884,3.963811 15.629467,7.94138 20.907728,10.381191 1.607608,0.74295 2.957336,1.341967 4.011789,1.780469 0.88653,0.3683 1.57233,0.626887 2.038702,0.769409 l 0.195792,0.05962 0.148872,-0.140758 c 0.399345,-0.375708 0.985661,-0.99942 1.742722,-1.853495 0.751064,-0.846666 1.672167,-1.92158 2.736498,-3.194049 3.384902,-4.046361 8.087077,-9.928578 12.579354,-15.734242 0.32984,-0.426155 0.82867,-0.67063 1.36842,-0.67063 0.38523,0 0.75036,0.125236 1.05586,0.361597 0.36548,0.282222 0.59867,0.690033 0.65723,1.147939 0.0582,0.457905 -0.0656,0.911225 -0.34819,1.275997 -5.12022,6.617758 -9.286877,11.840986 -12.383561,15.523986 l -0.246591,0.293511 0.312561,0.221544 c 1.156405,0.818092 2.450394,1.758597 3.846689,2.794706 4.913492,3.645958 9.615312,7.383991 9.661882,7.421033 0.36159,0.287514 0.58949,0.6985 0.64205,1.156758 0.0519,0.458611 -0.0773,0.910167 -0.36442,1.271764 -0.3302,0.414514 -0.82338,0.652639 -1.35396,0.652639 h -3.5e-4 c -0.39406,0 -0.76553,-0.130175 -1.07456,-0.376061 -4.74875,-3.776839 -9.865434,-7.638344 -13.68637,-10.329333 l -0.256822,-0.180975 -0.209197,0.233891 c -2.892425,3.230386 -3.536245,3.449461 -3.811411,3.542595 -0.202848,0.06773 -0.380648,0.126294 -0.662517,0.126294 -0.04022,0 -0.0822,-0.0011 -0.127,-0.0035 C 86.57276,76.0424 84.951041,75.489244 82.32073,74.348714 l -0.236361,-0.102306 -0.169687,0.194028 c -3.818113,4.372681 -9.169399,10.741378 -14.314663,17.037755 -0.329847,0.403578 -0.818092,0.634647 -1.33985,0.634647 -0.0321,0 -0.06456,-7.05e-4 -0.09701,-0.0025"
         style="display:inline;fill:#ffffff;fill-opacity:1;fill-rule:nonzero;stroke:none;stroke-width:0.352778"
         id="path88"
         clip-path="url(#clipPath12739)" />
      <path
         d="m 59.329779,60.141548 c 0.809625,-1.387122 45.475881,-8.975019 46.472831,-7.455253 0.99871,1.48837 3.44628,28.265261 1.24953,28.842758 -2.19851,0.608895 -38.673964,9.706328 -40.790631,8.85578 -2.116666,-0.8509 -7.741355,-28.856163 -6.93173,-30.243285 z"
         style="display:inline;fill:none;stroke:#ffffff;stroke-width:0.635706;stroke-linecap:round;stroke-linejoin:miter;stroke-miterlimit:10;stroke-dasharray:none;stroke-opacity:1"
         id="path108"
         clip-path="url(#clipPath12709)" />
      <path
         d="M 66.163155,92.11034 C 65.796619,92.089526 65.452661,91.956176 65.168322,91.72299 64.430311,91.11974 64.320244,90.028951 64.923141,89.291293 70.494913,82.47351 75.054566,77.026621 78.475805,73.101968 l 0.307269,-0.352425 -0.423333,-0.198614 c -1.80587,-0.847372 -3.942997,-1.878541 -6.352822,-3.06458 -6.789208,-3.341864 -13.494103,-6.827308 -13.560072,-6.861528 -0.845256,-0.439914 -1.17475,-1.4859 -0.735189,-2.330803 0.299156,-0.573969 0.886883,-0.93098 1.534583,-0.93098 0.278695,0 0.546806,0.06562 0.796572,0.195792 7.617884,3.963811 15.629467,7.94138 20.907728,10.381191 1.607608,0.74295 2.957336,1.341967 4.011789,1.780469 0.88653,0.3683 1.57233,0.626887 2.038702,0.769409 l 0.195792,0.05962 0.148872,-0.140758 c 0.399345,-0.375708 0.985661,-0.99942 1.742722,-1.853495 0.751064,-0.846666 1.672167,-1.92158 2.736498,-3.194049 3.384902,-4.046361 8.087077,-9.928578 12.579354,-15.734242 0.32984,-0.426155 0.82867,-0.67063 1.36842,-0.67063 0.38523,0 0.75036,0.125236 1.05586,0.361597 0.36548,0.282222 0.59867,0.690033 0.65723,1.147939 0.0582,0.457905 -0.0656,0.911225 -0.34819,1.275997 -5.12022,6.617758 -9.286877,11.840986 -12.383561,15.523986 l -0.246591,0.293511 0.312561,0.221544 c 1.156405,0.818092 2.450394,1.758597 3.846689,2.794706 4.913492,3.645958 9.615312,7.383991 9.661882,7.421033 0.36159,0.287514 0.58949,0.6985 0.64205,1.156758 0.0519,0.458611 -0.0773,0.910167 -0.36442,1.271764 -0.3302,0.414514 -0.82338,0.652639 -1.35396,0.652639 h -3.5e-4 c -0.39406,0 -0.76553,-0.130175 -1.07456,-0.376061 -4.74875,-3.776839 -9.865434,-7.638344 -13.68637,-10.329333 l -0.256822,-0.180975 -0.209197,0.233891 c -2.892425,3.230386 -3.536245,3.449461 -3.811411,3.542595 -0.202848,0.06773 -0.380648,0.126294 -0.662517,0.126294 -0.04022,0 -0.0822,-0.0011 -0.127,-0.0035 C 86.57276,76.0424 84.951041,75.489244 82.32073,74.348714 l -0.236361,-0.102306 -0.169687,0.194028 c -3.818113,4.372681 -9.169399,10.741378 -14.314663,17.037755 -0.329847,0.403578 -0.818092,0.634647 -1.33985,0.634647 -0.0321,0 -0.06456,-7.05e-4 -0.09701,-0.0025 z"
         style="display:inline;fill:none;stroke:#ffffff;stroke-width:0.635706;stroke-linecap:round;stroke-linejoin:miter;stroke-miterlimit:10;stroke-dasharray:none;stroke-opacity:1"
         id="path112"
         clip-path="url(#clipPath12649)" />
    </g>
  </g>
</svg>
